<?xml version="1.0" encoding="UTF-8" standalone="no"?>
<!DOCTYPE svg PUBLIC "-//W3C//DTD SVG 1.1//EN"
 "http://www.w3.org/Graphics/SVG/1.1/DTD/svg11.dtd">
<!-- Generated by graphviz version 2.43.0 (0)
 -->
<!-- Title: Map Pages: 1 -->
<svg width="967pt" height="900pt"
 viewBox="0.00 0.00 966.67 899.66" xmlns="http://www.w3.org/2000/svg" xmlns:xlink="http://www.w3.org/1999/xlink">
<g id="graph0" class="graph" transform="scale(1 1) rotate(0) translate(4 895.66)">
<title>Map</title>
<polygon fill="white" stroke="transparent" points="-4,4 -4,-895.66 962.67,-895.66 962.67,4 -4,4"/>
<!-- 0 -->
<g id="node1" class="node">
<title>0</title>
<ellipse fill="none" stroke="grey" cx="591.4" cy="-864.79" rx="50.82" ry="26.74"/>
<text text-anchor="middle" x="591.4" y="-868.59" font-family="Times,serif" font-size="14.00">Node: 0</text>
<text text-anchor="middle" x="591.4" y="-853.59" font-family="Times,serif" font-size="14.00">P: 0</text>
</g>
<!-- 1 -->
<g id="node2" class="node">
<title>1</title>
<ellipse fill="none" stroke="grey" cx="169.4" cy="-655.31" rx="53.07" ry="26.74"/>
<text text-anchor="middle" x="169.4" y="-659.11" font-family="Times,serif" font-size="14.00">Node: 1</text>
<text text-anchor="middle" x="169.4" y="-644.11" font-family="Times,serif" font-size="14.00">P: 0.001</text>
</g>
<!-- 0&#45;&#45;1 -->
<g id="edge1" class="edge">
<title>0&#45;&#45;1</title>
<path fill="none" stroke="black" d="M555.05,-845.92C475.58,-806.85 287.06,-714.16 206.71,-674.66"/>
<text text-anchor="middle" x="438.9" y="-756.35" font-family="Times,serif" font-size="14.00">50</text>
</g>
<!-- 2 -->
<g id="node3" class="node">
<title>2</title>
<ellipse fill="none" stroke="grey" cx="532.4" cy="-760.05" rx="50.82" ry="26.74"/>
<text text-anchor="middle" x="532.4" y="-763.85" font-family="Times,serif" font-size="14.00">Node: 2</text>
<text text-anchor="middle" x="532.4" y="-748.85" font-family="Times,serif" font-size="14.00">P: 0</text>
</g>
<!-- 0&#45;&#45;2 -->
<g id="edge2" class="edge">
<title>0&#45;&#45;2</title>
<path fill="none" stroke="black" d="M577.11,-838.92C567.91,-822.89 555.97,-802.11 546.75,-786.05"/>
<text text-anchor="middle" x="575.9" y="-808.72" font-family="Times,serif" font-size="14.00">50</text>
</g>
<!-- 7 -->
<g id="node8" class="node">
<title>7</title>
<ellipse fill="none" stroke="green" cx="504.4" cy="-341.09" rx="53.07" ry="26.74"/>
<text text-anchor="middle" x="504.4" y="-344.89" font-family="Times,serif" font-size="14.00">Node: 7</text>
<text text-anchor="middle" x="504.4" y="-329.89" font-family="Times,serif" font-size="14.00">P: 0.001</text>
</g>
<!-- 0&#45;&#45;7 -->
<g id="edge3" class="edge">
<title>0&#45;&#45;7</title>
<path fill="none" stroke="black" d="M599.3,-837.88C604.89,-817.27 611.4,-787.58 611.4,-761.05 611.4,-761.05 611.4,-761.05 611.4,-497.2 611.4,-460.83 606.74,-449.76 587.4,-418.96 573.72,-397.17 552.3,-377.55 534.65,-363.59"/>
<text text-anchor="middle" x="620.9" y="-599.24" font-family="Times,serif" font-size="14.00">20</text>
</g>
<!-- 10 -->
<g id="node11" class="node">
<title>10</title>
<ellipse fill="none" stroke="grey" cx="901.4" cy="-236.35" rx="57.05" ry="26.74"/>
<text text-anchor="middle" x="901.4" y="-240.15" font-family="Times,serif" font-size="14.00">Node: 10</text>
<text text-anchor="middle" x="901.4" y="-225.15" font-family="Times,serif" font-size="14.00">P: 0</text>
</g>
<!-- 0&#45;&#45;10 -->
<g id="edge4" class="edge">
<title>0&#45;&#45;10</title>
<path fill="none" stroke="black" d="M641.42,-859.13C735.72,-848.95 930.4,-820.7 930.4,-761.05 930.4,-761.05 930.4,-761.05 930.4,-340.09 930.4,-313.03 920.96,-283.42 912.86,-262.97"/>
<text text-anchor="middle" x="939.9" y="-546.87" font-family="Times,serif" font-size="14.00">20</text>
</g>
<!-- 4 -->
<g id="node5" class="node">
<title>4</title>
<ellipse fill="none" stroke="green" cx="220.4" cy="-550.57" rx="50.82" ry="26.74"/>
<text text-anchor="middle" x="220.4" y="-554.37" font-family="Times,serif" font-size="14.00">Node: 4</text>
<text text-anchor="middle" x="220.4" y="-539.37" font-family="Times,serif" font-size="14.00">P: 0</text>
</g>
<!-- 1&#45;&#45;4 -->
<g id="edge5" class="edge">
<title>1&#45;&#45;4</title>
<path fill="none" stroke="black" d="M181.87,-629.18C189.78,-613.26 199.96,-592.74 207.87,-576.8"/>
<text text-anchor="middle" x="207.9" y="-599.24" font-family="Times,serif" font-size="14.00">30</text>
</g>
<!-- 8 -->
<g id="node9" class="node">
<title>8</title>
<ellipse fill="none" stroke="grey" cx="174.4" cy="-236.35" rx="50.82" ry="26.74"/>
<text text-anchor="middle" x="174.4" y="-240.15" font-family="Times,serif" font-size="14.00">Node: 8</text>
<text text-anchor="middle" x="174.4" y="-225.15" font-family="Times,serif" font-size="14.00">P: 0</text>
</g>
<!-- 1&#45;&#45;8 -->
<g id="edge6" class="edge">
<title>1&#45;&#45;8</title>
<path fill="none" stroke="black" d="M158.33,-628.66C150.5,-608.18 141.4,-578.56 141.4,-551.57 141.4,-551.57 141.4,-551.57 141.4,-340.09 141.4,-312.55 152.28,-282.76 161.54,-262.39"/>
<text text-anchor="middle" x="150.9" y="-442.13" font-family="Times,serif" font-size="14.00">10</text>
</g>
<!-- 16 -->
<g id="node17" class="node">
<title>16</title>
<ellipse fill="none" stroke="grey" cx="228.4" cy="-26.87" rx="57.05" ry="26.74"/>
<text text-anchor="middle" x="228.4" y="-30.67" font-family="Times,serif" font-size="14.00">Node: 16</text>
<text text-anchor="middle" x="228.4" y="-15.67" font-family="Times,serif" font-size="14.00">P: 0</text>
</g>
<!-- 1&#45;&#45;16 -->
<g id="edge7" class="edge">
<title>1&#45;&#45;16</title>
<path fill="none" stroke="black" d="M141,-632.25C120.13,-613.36 95.4,-584.1 95.4,-551.57 95.4,-551.57 95.4,-551.57 95.4,-130.61 95.4,-85.82 143.21,-57.81 181.51,-42.55"/>
<text text-anchor="middle" x="100.4" y="-337.39" font-family="Times,serif" font-size="14.00">5</text>
</g>
<!-- 3 -->
<g id="node4" class="node">
<title>3</title>
<ellipse fill="none" stroke="grey" cx="373.4" cy="-655.31" rx="59.29" ry="26.74"/>
<text text-anchor="middle" x="373.4" y="-659.11" font-family="Times,serif" font-size="14.00">Node: 3</text>
<text text-anchor="middle" x="373.4" y="-644.11" font-family="Times,serif" font-size="14.00">P: 0.0005</text>
</g>
<!-- 2&#45;&#45;3 -->
<g id="edge8" class="edge">
<title>2&#45;&#45;3</title>
<path fill="none" stroke="black" d="M500.98,-738.75C473.74,-721.15 434.43,-695.75 406.66,-677.81"/>
<text text-anchor="middle" x="472.9" y="-703.98" font-family="Times,serif" font-size="14.00">20</text>
</g>
<!-- 2&#45;&#45;10 -->
<g id="edge9" class="edge">
<title>2&#45;&#45;10</title>
<path fill="none" stroke="black" d="M556.17,-736.04C614.19,-678.75 764.74,-523.18 853.4,-367.96 872.87,-333.87 886.96,-290.43 894.66,-263.25"/>
<text text-anchor="middle" x="779.9" y="-494.5" font-family="Times,serif" font-size="14.00">25</text>
</g>
<!-- 11 -->
<g id="node12" class="node">
<title>11</title>
<ellipse fill="none" stroke="grey" cx="338.4" cy="-341.09" rx="57.05" ry="26.74"/>
<text text-anchor="middle" x="338.4" y="-344.89" font-family="Times,serif" font-size="14.00">Node: 11</text>
<text text-anchor="middle" x="338.4" y="-329.89" font-family="Times,serif" font-size="14.00">P: 0.001</text>
</g>
<!-- 2&#45;&#45;11 -->
<g id="edge10" class="edge">
<title>2&#45;&#45;11</title>
<path fill="none" stroke="black" d="M531.49,-733.01C529.98,-706.27 525.98,-663.7 515.4,-628.44 493.25,-554.67 468.19,-544.14 439.4,-472.7 424.25,-435.13 436.58,-417.69 411.4,-385.96 402.94,-375.31 391.13,-366.64 379.48,-359.92"/>
<text text-anchor="middle" x="504.9" y="-546.87" font-family="Times,serif" font-size="14.00">10</text>
</g>
<!-- 14 -->
<g id="node15" class="node">
<title>14</title>
<ellipse fill="none" stroke="green" cx="400.4" cy="-236.35" rx="57.05" ry="26.74"/>
<text text-anchor="middle" x="400.4" y="-240.15" font-family="Times,serif" font-size="14.00">Node: 14</text>
<text text-anchor="middle" x="400.4" y="-225.15" font-family="Times,serif" font-size="14.00">P: 0</text>
</g>
<!-- 2&#45;&#45;14 -->
<g id="edge11" class="edge">
<title>2&#45;&#45;14</title>
<path fill="none" stroke="black" d="M523.76,-733.34C510.31,-688.98 488.56,-595.89 515.4,-523.7 525.83,-495.64 548.97,-500.76 559.4,-472.7 567.72,-450.31 572.48,-438.94 559.4,-418.96 528.32,-371.51 480.45,-410.02 442.4,-367.96 428.37,-352.46 413.84,-296.83 406.08,-263.37"/>
<text text-anchor="middle" x="556.9" y="-494.5" font-family="Times,serif" font-size="14.00">30</text>
</g>
<!-- 3&#45;&#45;4 -->
<g id="edge12" class="edge">
<title>3&#45;&#45;4</title>
<path fill="none" stroke="black" d="M340.95,-632.52C314.37,-614.67 277.03,-589.6 250.97,-572.1"/>
<text text-anchor="middle" x="315.9" y="-599.24" font-family="Times,serif" font-size="14.00">10</text>
</g>
<!-- 9 -->
<g id="node10" class="node">
<title>9</title>
<ellipse fill="none" stroke="grey" cx="228.4" cy="-131.61" rx="50.82" ry="26.74"/>
<text text-anchor="middle" x="228.4" y="-135.41" font-family="Times,serif" font-size="14.00">Node: 9</text>
<text text-anchor="middle" x="228.4" y="-120.41" font-family="Times,serif" font-size="14.00">P: 0</text>
</g>
<!-- 3&#45;&#45;9 -->
<g id="edge13" class="edge">
<title>3&#45;&#45;9</title>
<path fill="none" stroke="black" d="M392.97,-629.74C413.3,-601.08 438.73,-553.8 412.4,-523.7 372.84,-478.47 323.04,-545.92 278.4,-505.7 265.41,-494 239.2,-241.15 230.94,-158.5"/>
<text text-anchor="middle" x="267.9" y="-389.76" font-family="Times,serif" font-size="14.00">40</text>
</g>
<!-- 17 -->
<g id="node18" class="node">
<title>17</title>
<ellipse fill="none" stroke="grey" cx="346.4" cy="-550.57" rx="57.05" ry="26.74"/>
<text text-anchor="middle" x="346.4" y="-554.37" font-family="Times,serif" font-size="14.00">Node: 17</text>
<text text-anchor="middle" x="346.4" y="-539.37" font-family="Times,serif" font-size="14.00">P: 0.001</text>
</g>
<!-- 3&#45;&#45;17 -->
<g id="edge14" class="edge">
<title>3&#45;&#45;17</title>
<path fill="none" stroke="black" d="M366.58,-628.39C362.49,-612.81 357.3,-593.06 353.21,-577.49"/>
<text text-anchor="middle" x="371.9" y="-599.24" font-family="Times,serif" font-size="14.00">35</text>
</g>
<!-- 5 -->
<g id="node6" class="node">
<title>5</title>
<ellipse fill="none" stroke="grey" cx="338.4" cy="-445.83" rx="59.29" ry="26.74"/>
<text text-anchor="middle" x="338.4" y="-449.63" font-family="Times,serif" font-size="14.00">Node: 5</text>
<text text-anchor="middle" x="338.4" y="-434.63" font-family="Times,serif" font-size="14.00">P: 0.0005</text>
</g>
<!-- 4&#45;&#45;5 -->
<g id="edge15" class="edge">
<title>4&#45;&#45;5</title>
<path fill="none" stroke="black" d="M246,-527.28C265.39,-510.4 291.95,-487.28 311.61,-470.15"/>
<text text-anchor="middle" x="296.9" y="-494.5" font-family="Times,serif" font-size="14.00">10</text>
</g>
<!-- 4&#45;&#45;7 -->
<g id="edge16" class="edge">
<title>4&#45;&#45;7</title>
<path fill="none" stroke="black" d="M258.75,-532.88C265.93,-529.8 273.38,-526.63 280.4,-523.7 336.14,-500.41 358.52,-509.54 406.4,-472.7 444.25,-443.57 474.73,-396.2 491.14,-367.23"/>
<text text-anchor="middle" x="466.9" y="-442.13" font-family="Times,serif" font-size="14.00">10</text>
</g>
<!-- 13 -->
<g id="node14" class="node">
<title>13</title>
<ellipse fill="none" stroke="green" cx="59.4" cy="-26.87" rx="59.29" ry="26.74"/>
<text text-anchor="middle" x="59.4" y="-30.67" font-family="Times,serif" font-size="14.00">Node: 13</text>
<text text-anchor="middle" x="59.4" y="-15.67" font-family="Times,serif" font-size="14.00">P: 0.0005</text>
</g>
<!-- 4&#45;&#45;13 -->
<g id="edge17" class="edge">
<title>4&#45;&#45;13</title>
<path fill="none" stroke="black" d="M214.65,-523.78C207.2,-495.29 191.79,-449.41 164.4,-418.96 133.39,-384.49 102.51,-404.05 73.4,-367.96 50.56,-339.65 49.4,-326.09 49.4,-289.72 49.4,-289.72 49.4,-289.72 49.4,-130.61 49.4,-104.45 52.65,-74.71 55.44,-53.98"/>
<text text-anchor="middle" x="59.9" y="-285.02" font-family="Times,serif" font-size="14.00">30</text>
</g>
<!-- 15 -->
<g id="node16" class="node">
<title>15</title>
<ellipse fill="none" stroke="grey" cx="634.4" cy="-341.09" rx="59.29" ry="26.74"/>
<text text-anchor="middle" x="634.4" y="-344.89" font-family="Times,serif" font-size="14.00">Node: 15</text>
<text text-anchor="middle" x="634.4" y="-329.89" font-family="Times,serif" font-size="14.00">P: 0.0005</text>
</g>
<!-- 4&#45;&#45;15 -->
<g id="edge18" class="edge">
<title>4&#45;&#45;15</title>
<path fill="none" stroke="black" d="M257.7,-532.03C265.11,-528.96 272.92,-526.01 280.4,-523.7 368.03,-496.58 400.03,-516.93 480.4,-472.7 532.24,-444.17 536.16,-424.1 581.4,-385.96 589.52,-379.11 598.41,-371.72 606.54,-364.99"/>
<text text-anchor="middle" x="556.9" y="-442.13" font-family="Times,serif" font-size="14.00">15</text>
</g>
<!-- 5&#45;&#45;7 -->
<g id="edge19" class="edge">
<title>5&#45;&#45;7</title>
<path fill="none" stroke="black" d="M372.39,-423.79C401.42,-405.83 442.9,-380.15 471.58,-362.4"/>
<text text-anchor="middle" x="440.9" y="-389.76" font-family="Times,serif" font-size="14.00">15</text>
</g>
<!-- 5&#45;&#45;11 -->
<g id="edge20" class="edge">
<title>5&#45;&#45;11</title>
<path fill="none" stroke="black" d="M338.4,-418.9C338.4,-403.33 338.4,-383.58 338.4,-368.01"/>
<text text-anchor="middle" x="347.9" y="-389.76" font-family="Times,serif" font-size="14.00">10</text>
</g>
<!-- 19 -->
<g id="node20" class="node">
<title>19</title>
<ellipse fill="none" stroke="grey" cx="605.4" cy="-131.61" rx="57.05" ry="26.74"/>
<text text-anchor="middle" x="605.4" y="-135.41" font-family="Times,serif" font-size="14.00">Node: 19</text>
<text text-anchor="middle" x="605.4" y="-120.41" font-family="Times,serif" font-size="14.00">P: 0</text>
</g>
<!-- 5&#45;&#45;19 -->
<g id="edge21" class="edge">
<title>5&#45;&#45;19</title>
<path fill="none" stroke="black" d="M310.92,-421.9C296.46,-407.99 280.16,-388.91 272.4,-367.96 246.13,-297.04 274.48,-255.63 334.4,-209.48 397.45,-160.91 489.86,-143.03 548.82,-136.44"/>
<text text-anchor="middle" x="279.9" y="-285.02" font-family="Times,serif" font-size="14.00">20</text>
</g>
<!-- 6 -->
<g id="node7" class="node">
<title>6</title>
<ellipse fill="none" stroke="grey" cx="690.4" cy="-445.83" rx="50.82" ry="26.74"/>
<text text-anchor="middle" x="690.4" y="-449.63" font-family="Times,serif" font-size="14.00">Node: 6</text>
<text text-anchor="middle" x="690.4" y="-434.63" font-family="Times,serif" font-size="14.00">P: 0</text>
</g>
<!-- 6&#45;&#45;7 -->
<g id="edge22" class="edge">
<title>6&#45;&#45;7</title>
<path fill="none" stroke="black" d="M655.85,-425.75C622.65,-407.41 572.74,-379.84 539.39,-361.42"/>
<text text-anchor="middle" x="617.9" y="-389.76" font-family="Times,serif" font-size="14.00">40</text>
</g>
<!-- 6&#45;&#45;15 -->
<g id="edge23" class="edge">
<title>6&#45;&#45;15</title>
<path fill="none" stroke="black" d="M676.7,-419.7C668.02,-403.78 656.84,-383.26 648.15,-367.32"/>
<text text-anchor="middle" x="674.9" y="-389.76" font-family="Times,serif" font-size="14.00">15</text>
</g>
<!-- 18 -->
<g id="node19" class="node">
<title>18</title>
<ellipse fill="none" stroke="grey" cx="769.4" cy="-26.87" rx="57.05" ry="26.74"/>
<text text-anchor="middle" x="769.4" y="-30.67" font-family="Times,serif" font-size="14.00">Node: 18</text>
<text text-anchor="middle" x="769.4" y="-15.67" font-family="Times,serif" font-size="14.00">P: 0</text>
</g>
<!-- 6&#45;&#45;18 -->
<g id="edge24" class="edge">
<title>6&#45;&#45;18</title>
<path fill="none" stroke="black" d="M736.53,-433.97C770.41,-423.32 814.1,-403.36 835.4,-367.96 847.71,-347.49 848.46,-334.22 835.4,-314.22 824.51,-297.56 806.04,-312.36 794.4,-296.22 741.01,-222.23 754.45,-105.26 763.89,-53.71"/>
<text text-anchor="middle" x="784.9" y="-232.65" font-family="Times,serif" font-size="14.00">20</text>
</g>
<!-- 7&#45;&#45;8 -->
<g id="edge25" class="edge">
<title>7&#45;&#45;8</title>
<path fill="none" stroke="black" d="M466.73,-322.02C439.15,-309.31 400.55,-292.61 365.4,-281.22 317.49,-265.71 261.14,-253.47 222.12,-245.9"/>
<text text-anchor="middle" x="413.9" y="-285.02" font-family="Times,serif" font-size="14.00">30</text>
</g>
<!-- 7&#45;&#45;10 -->
<g id="edge26" class="edge">
<title>7&#45;&#45;10</title>
<path fill="none" stroke="black" d="M542.98,-322.57C550.64,-319.5 558.69,-316.55 566.4,-314.22 606.7,-302.05 618.27,-305.2 659.4,-296.22 726.35,-281.61 803.17,-262.52 851.96,-250.1"/>
<text text-anchor="middle" x="727.9" y="-285.02" font-family="Times,serif" font-size="14.00">20</text>
</g>
<!-- 8&#45;&#45;9 -->
<g id="edge27" class="edge">
<title>8&#45;&#45;9</title>
<path fill="none" stroke="black" d="M187.61,-210.22C195.97,-194.3 206.76,-173.78 215.14,-157.84"/>
<text text-anchor="middle" x="214.9" y="-180.28" font-family="Times,serif" font-size="14.00">20</text>
</g>
<!-- 9&#45;&#45;13 -->
<g id="edge28" class="edge">
<title>9&#45;&#45;13</title>
<path fill="none" stroke="black" d="M195.81,-110.8C166.56,-93.02 123.75,-66.99 93.92,-48.85"/>
<text text-anchor="middle" x="163.9" y="-75.54" font-family="Times,serif" font-size="14.00">20</text>
</g>
<!-- 9&#45;&#45;16 -->
<g id="edge29" class="edge">
<title>9&#45;&#45;16</title>
<path fill="none" stroke="black" d="M228.4,-104.68C228.4,-89.11 228.4,-69.36 228.4,-53.79"/>
<text text-anchor="middle" x="237.9" y="-75.54" font-family="Times,serif" font-size="14.00">15</text>
</g>
<!-- 9&#45;&#45;18 -->
<g id="edge30" class="edge">
<title>9&#45;&#45;18</title>
<path fill="none" stroke="black" d="M275.24,-121.06C299.71,-116.11 330.15,-110.01 357.4,-104.74 486.34,-79.78 638.27,-51.8 716.67,-37.47"/>
<text text-anchor="middle" x="536.9" y="-75.54" font-family="Times,serif" font-size="14.00">20</text>
</g>
<!-- 10&#45;&#45;19 -->
<g id="edge31" class="edge">
<title>10&#45;&#45;19</title>
<path fill="none" stroke="black" d="M856.12,-219.63C800.41,-200.3 706.38,-167.66 650.67,-148.32"/>
<text text-anchor="middle" x="779.9" y="-180.28" font-family="Times,serif" font-size="14.00">30</text>
</g>
<!-- 11&#45;&#45;14 -->
<g id="edge32" class="edge">
<title>11&#45;&#45;14</title>
<path fill="none" stroke="black" d="M337.81,-314.14C338.58,-303.37 340.84,-291.11 346.4,-281.22 351.37,-272.37 358.89,-264.61 366.75,-258.17"/>
<text text-anchor="middle" x="355.9" y="-285.02" font-family="Times,serif" font-size="14.00">15</text>
</g>
<!-- 12 -->
<g id="node13" class="node">
<title>12</title>
<ellipse fill="none" stroke="grey" cx="769.4" cy="-341.09" rx="57.05" ry="26.74"/>
<text text-anchor="middle" x="769.4" y="-344.89" font-family="Times,serif" font-size="14.00">Node: 12</text>
<text text-anchor="middle" x="769.4" y="-329.89" font-family="Times,serif" font-size="14.00">P: 0</text>
</g>
<!-- 12&#45;&#45;14 -->
<g id="edge33" class="edge">
<title>12&#45;&#45;14</title>
<path fill="none" stroke="black" d="M727.14,-322.9C718.99,-319.83 710.47,-316.8 702.4,-314.22 615.55,-286.51 512.19,-261.97 451.68,-248.44"/>
<text text-anchor="middle" x="645.9" y="-285.02" font-family="Times,serif" font-size="14.00">10</text>
</g>
<!-- 12&#45;&#45;18 -->
<g id="edge34" class="edge">
<title>12&#45;&#45;18</title>
<path fill="none" stroke="black" d="M779.08,-314.54C784.15,-299.78 789.83,-280.72 792.4,-263.22 799.01,-218.05 786.83,-89.85 783.4,-71.74 782.27,-65.77 780.57,-59.48 778.75,-53.58"/>
<text text-anchor="middle" x="802.9" y="-180.28" font-family="Times,serif" font-size="14.00">40</text>
</g>
<!-- 14&#45;&#45;16 -->
<g id="edge35" class="edge">
<title>14&#45;&#45;16</title>
<path fill="none" stroke="black" d="M402.3,-209.41C403.45,-173.83 400,-109.96 365.4,-71.74 344.86,-49.06 312.61,-38.04 284.56,-32.72"/>
<text text-anchor="middle" x="409.9" y="-127.91" font-family="Times,serif" font-size="14.00">40</text>
</g>
</g>
</svg>
