<?xml version="1.0" encoding="UTF-8" standalone="no"?>
<!DOCTYPE svg PUBLIC "-//W3C//DTD SVG 1.1//EN"
 "http://www.w3.org/Graphics/SVG/1.1/DTD/svg11.dtd">
<!-- Generated by graphviz version 2.50.0 (20211204.2007)
 -->
<!-- Title: Map Pages: 1 -->
<svg width="181pt" height="376pt"
 viewBox="0.00 0.00 180.97 375.96" xmlns="http://www.w3.org/2000/svg" xmlns:xlink="http://www.w3.org/1999/xlink">
<g id="graph0" class="graph" transform="scale(1 1) rotate(0) translate(4 371.96)">
<title>Map</title>
<polygon fill="white" stroke="transparent" points="-4,4 -4,-371.96 176.97,-371.96 176.97,4 -4,4"/>
<!-- 0 -->
<g id="node1" class="node">
<title>0</title>
<ellipse fill="none" stroke="grey" cx="129.84" cy="-341.09" rx="43.27" ry="26.74"/>
<text text-anchor="middle" x="129.84" y="-344.89" font-family="Times New Roman,serif" font-size="14.00">Node: 0</text>
<text text-anchor="middle" x="129.84" y="-329.89" font-family="Times New Roman,serif" font-size="14.00">P: 0</text>
</g>
<!-- 1 -->
<g id="node2" class="node">
<title>1</title>
<ellipse fill="none" stroke="grey" cx="93.84" cy="-236.35" rx="43.68" ry="26.74"/>
<text text-anchor="middle" x="93.84" y="-240.15" font-family="Times New Roman,serif" font-size="14.00">Node: 1</text>
<text text-anchor="middle" x="93.84" y="-225.15" font-family="Times New Roman,serif" font-size="14.00">P: 0.001</text>
</g>
<!-- 0&#45;&#45;1 -->
<g id="edge1" class="edge">
<title>0&#45;&#45;1</title>
<path fill="none" stroke="black" d="M120.94,-314.69C115.4,-298.89 108.3,-278.63 102.76,-262.81"/>
<text text-anchor="middle" x="121.84" y="-285.02" font-family="Times New Roman,serif" font-size="14.00">20</text>
</g>
<!-- 3 -->
<g id="node4" class="node">
<title>3</title>
<ellipse fill="none" stroke="green" cx="123.84" cy="-26.87" rx="43.27" ry="26.74"/>
<text text-anchor="middle" x="123.84" y="-30.67" font-family="Times New Roman,serif" font-size="14.00">Node: 3</text>
<text text-anchor="middle" x="123.84" y="-15.67" font-family="Times New Roman,serif" font-size="14.00">P: 0</text>
</g>
<!-- 0&#45;&#45;3 -->
<g id="edge2" class="edge">
<title>0&#45;&#45;3</title>
<path fill="none" stroke="black" d="M137,-314.35C140.76,-299.53 144.96,-280.48 146.84,-263.22 155.16,-187.11 139.15,-96.98 129.84,-53.66"/>
<text text-anchor="middle" x="154.84" y="-180.28" font-family="Times New Roman,serif" font-size="14.00">30</text>
</g>
<!-- 2 -->
<g id="node3" class="node">
<title>2</title>
<ellipse fill="none" stroke="grey" cx="43.84" cy="-131.61" rx="43.68" ry="26.74"/>
<text text-anchor="middle" x="43.84" y="-135.41" font-family="Times New Roman,serif" font-size="14.00">Node: 2</text>
<text text-anchor="middle" x="43.84" y="-120.41" font-family="Times New Roman,serif" font-size="14.00">P: 0.002</text>
</g>
<!-- 1&#45;&#45;2 -->
<g id="edge3" class="edge">
<title>1&#45;&#45;2</title>
<path fill="none" stroke="black" d="M81.74,-210.48C73.93,-194.45 63.82,-173.67 56.01,-157.61"/>
<text text-anchor="middle" x="78.84" y="-180.28" font-family="Times New Roman,serif" font-size="14.00">10</text>
</g>
<!-- 1&#45;&#45;3 -->
<g id="edge4" class="edge">
<title>1&#45;&#45;3</title>
<path fill="none" stroke="black" d="M97.58,-209.49C103.34,-169.62 114.34,-93.59 120.1,-53.73"/>
<text text-anchor="middle" x="119.84" y="-127.91" font-family="Times New Roman,serif" font-size="14.00">20</text>
</g>
<!-- 2&#45;&#45;3 -->
<g id="edge5" class="edge">
<title>2&#45;&#45;3</title>
<path fill="none" stroke="black" d="M62.19,-107.04C75.2,-90.33 92.58,-68.01 105.57,-51.33"/>
<text text-anchor="middle" x="95.84" y="-75.54" font-family="Times New Roman,serif" font-size="14.00">10</text>
</g>
</g>
</svg>
