<?xml version="1.0" encoding="UTF-8" standalone="no"?>
<!DOCTYPE svg PUBLIC "-//W3C//DTD SVG 1.1//EN"
 "http://www.w3.org/Graphics/SVG/1.1/DTD/svg11.dtd">
<!-- Generated by graphviz version 2.43.0 (0)
 -->
<!-- Title: Map Pages: 1 -->
<svg width="301pt" height="834pt"
 viewBox="0.00 0.00 301.31 833.66" xmlns="http://www.w3.org/2000/svg" xmlns:xlink="http://www.w3.org/1999/xlink">
<g id="graph0" class="graph" transform="scale(1 1) rotate(0) translate(4 829.66)">
<title>Map</title>
<polygon fill="white" stroke="transparent" points="-4,4 -4,-829.66 297.31,-829.66 297.31,4 -4,4"/>
<!-- 0 -->
<g id="node1" class="node">
<title>0</title>
<ellipse fill="none" stroke="grey" cx="124.4" cy="-798.79" rx="50.82" ry="26.74"/>
<text text-anchor="middle" x="124.4" y="-802.59" font-family="Times,serif" font-size="14.00">Node: 0</text>
<text text-anchor="middle" x="124.4" y="-787.59" font-family="Times,serif" font-size="14.00">P: 0</text>
</g>
<!-- 1 -->
<g id="node2" class="node">
<title>1</title>
<ellipse fill="none" stroke="grey" cx="99.4" cy="-622.31" rx="53.07" ry="26.74"/>
<text text-anchor="middle" x="99.4" y="-626.11" font-family="Times,serif" font-size="14.00">Node: 1</text>
<text text-anchor="middle" x="99.4" y="-611.11" font-family="Times,serif" font-size="14.00">P: 0.001</text>
</g>
<!-- 0&#45;&#45;1 -->
<g id="edge1" class="edge">
<title>0&#45;&#45;1</title>
<path fill="none" stroke="black" d="M120.65,-771.67C115.93,-738.68 107.84,-682.26 103.12,-649.33"/>
<text text-anchor="middle" x="127.9" y="-742.72" font-family="Times,serif" font-size="14.00">50</text>
</g>
<!-- 2 -->
<g id="node3" class="node">
<title>2</title>
<ellipse fill="none" stroke="grey" cx="184.4" cy="-694.05" rx="50.82" ry="26.74"/>
<text text-anchor="middle" x="184.4" y="-697.85" font-family="Times,serif" font-size="14.00">Node: 2</text>
<text text-anchor="middle" x="184.4" y="-682.85" font-family="Times,serif" font-size="14.00">P: 0</text>
</g>
<!-- 0&#45;&#45;2 -->
<g id="edge2" class="edge">
<title>0&#45;&#45;2</title>
<path fill="none" stroke="black" d="M138.92,-772.92C148.29,-756.89 160.42,-736.11 169.8,-720.05"/>
<text text-anchor="middle" x="167.9" y="-742.72" font-family="Times,serif" font-size="14.00">50</text>
</g>
<!-- 4 -->
<g id="node5" class="node">
<title>4</title>
<ellipse fill="none" stroke="green" cx="107.4" cy="-445.83" rx="50.82" ry="26.74"/>
<text text-anchor="middle" x="107.4" y="-449.63" font-family="Times,serif" font-size="14.00">Node: 4</text>
<text text-anchor="middle" x="107.4" y="-434.63" font-family="Times,serif" font-size="14.00">P: 0</text>
</g>
<!-- 1&#45;&#45;4 -->
<g id="edge3" class="edge">
<title>1&#45;&#45;4</title>
<path fill="none" stroke="black" d="M99.09,-595.19C99,-575.52 99.17,-547.9 100.4,-523.7 101.26,-506.7 102.99,-487.65 104.51,-472.77"/>
<text text-anchor="middle" x="109.9" y="-546.87" font-family="Times,serif" font-size="14.00">30</text>
</g>
<!-- 3 -->
<g id="node4" class="node">
<title>3</title>
<ellipse fill="none" stroke="grey" cx="187.4" cy="-550.57" rx="59.29" ry="26.74"/>
<text text-anchor="middle" x="187.4" y="-554.37" font-family="Times,serif" font-size="14.00">Node: 3</text>
<text text-anchor="middle" x="187.4" y="-539.37" font-family="Times,serif" font-size="14.00">P: 0.0005</text>
</g>
<!-- 2&#45;&#45;3 -->
<g id="edge4" class="edge">
<title>2&#45;&#45;3</title>
<path fill="none" stroke="black" d="M184.95,-667.1C185.49,-641.73 186.3,-603.31 186.84,-577.83"/>
<text text-anchor="middle" x="196.9" y="-618.61" font-family="Times,serif" font-size="14.00">20</text>
</g>
<!-- 3&#45;&#45;4 -->
<g id="edge5" class="edge">
<title>3&#45;&#45;4</title>
<path fill="none" stroke="black" d="M168.23,-524.96C155.48,-508.58 138.79,-487.15 126.13,-470.88"/>
<text text-anchor="middle" x="161.9" y="-494.5" font-family="Times,serif" font-size="14.00">10</text>
</g>
<!-- 5 -->
<g id="node6" class="node">
<title>5</title>
<ellipse fill="none" stroke="grey" cx="59.4" cy="-341.09" rx="59.29" ry="26.74"/>
<text text-anchor="middle" x="59.4" y="-344.89" font-family="Times,serif" font-size="14.00">Node: 5</text>
<text text-anchor="middle" x="59.4" y="-329.89" font-family="Times,serif" font-size="14.00">P: 0.0005</text>
</g>
<!-- 4&#45;&#45;5 -->
<g id="edge6" class="edge">
<title>4&#45;&#45;5</title>
<path fill="none" stroke="black" d="M95.53,-419.43C88.15,-403.63 78.68,-383.37 71.29,-367.55"/>
<text text-anchor="middle" x="95.9" y="-389.76" font-family="Times,serif" font-size="14.00">10</text>
</g>
<!-- 7 -->
<g id="node8" class="node">
<title>7</title>
<ellipse fill="none" stroke="green" cx="154.4" cy="-236.35" rx="53.07" ry="26.74"/>
<text text-anchor="middle" x="154.4" y="-240.15" font-family="Times,serif" font-size="14.00">Node: 7</text>
<text text-anchor="middle" x="154.4" y="-225.15" font-family="Times,serif" font-size="14.00">P: 0.001</text>
</g>
<!-- 4&#45;&#45;7 -->
<g id="edge7" class="edge">
<title>4&#45;&#45;7</title>
<path fill="none" stroke="black" d="M114.48,-418.94C118.46,-404.07 123.42,-385.02 127.4,-367.96 135.81,-331.88 144.26,-289.88 149.4,-263.46"/>
<text text-anchor="middle" x="148.9" y="-337.39" font-family="Times,serif" font-size="14.00">10</text>
</g>
<!-- 5&#45;&#45;7 -->
<g id="edge8" class="edge">
<title>5&#45;&#45;7</title>
<path fill="none" stroke="black" d="M81.67,-316C97.03,-299.4 117.34,-277.43 132.59,-260.93"/>
<text text-anchor="middle" x="122.9" y="-285.02" font-family="Times,serif" font-size="14.00">15</text>
</g>
<!-- 6 -->
<g id="node7" class="node">
<title>6</title>
<ellipse fill="none" stroke="grey" cx="242.4" cy="-341.09" rx="50.82" ry="26.74"/>
<text text-anchor="middle" x="242.4" y="-344.89" font-family="Times,serif" font-size="14.00">Node: 6</text>
<text text-anchor="middle" x="242.4" y="-329.89" font-family="Times,serif" font-size="14.00">P: 0</text>
</g>
<!-- 6&#45;&#45;7 -->
<g id="edge9" class="edge">
<title>6&#45;&#45;7</title>
<path fill="none" stroke="black" d="M221.99,-316.26C207.87,-299.78 189.16,-277.93 175,-261.41"/>
<text text-anchor="middle" x="212.9" y="-285.02" font-family="Times,serif" font-size="14.00">40</text>
</g>
<!-- 8 -->
<g id="node9" class="node">
<title>8</title>
<ellipse fill="none" stroke="grey" cx="154.4" cy="-131.61" rx="50.82" ry="26.74"/>
<text text-anchor="middle" x="154.4" y="-135.41" font-family="Times,serif" font-size="14.00">Node: 8</text>
<text text-anchor="middle" x="154.4" y="-120.41" font-family="Times,serif" font-size="14.00">P: 0</text>
</g>
<!-- 7&#45;&#45;8 -->
<g id="edge10" class="edge">
<title>7&#45;&#45;8</title>
<path fill="none" stroke="black" d="M154.4,-209.42C154.4,-193.85 154.4,-174.1 154.4,-158.53"/>
<text text-anchor="middle" x="163.9" y="-180.28" font-family="Times,serif" font-size="14.00">30</text>
</g>
<!-- 9 -->
<g id="node10" class="node">
<title>9</title>
<ellipse fill="none" stroke="grey" cx="154.4" cy="-26.87" rx="50.82" ry="26.74"/>
<text text-anchor="middle" x="154.4" y="-30.67" font-family="Times,serif" font-size="14.00">Node: 9</text>
<text text-anchor="middle" x="154.4" y="-15.67" font-family="Times,serif" font-size="14.00">P: 0</text>
</g>
<!-- 8&#45;&#45;9 -->
<g id="edge11" class="edge">
<title>8&#45;&#45;9</title>
<path fill="none" stroke="black" d="M154.4,-104.68C154.4,-89.11 154.4,-69.36 154.4,-53.79"/>
<text text-anchor="middle" x="163.9" y="-75.54" font-family="Times,serif" font-size="14.00">20</text>
</g>
</g>
</svg>
